<svg width="490" height="84" viewBox="0 0 490 84" fill="none" xmlns="http://www.w3.org/2000/svg">
<path d="M1.08008 15V4.97852H4.53223C5.31152 4.97852 5.90625 5.02637 6.31641 5.12207C6.89062 5.25423 7.38053 5.49349 7.78613 5.83984C8.31478 6.28646 8.70898 6.8584 8.96875 7.55566C9.23307 8.24837 9.36523 9.04134 9.36523 9.93457C9.36523 10.6956 9.27637 11.3701 9.09863 11.958C8.9209 12.5459 8.69303 13.0335 8.41504 13.4209C8.13704 13.8037 7.83171 14.1068 7.49902 14.3301C7.1709 14.5488 6.77214 14.7152 6.30273 14.8291C5.83789 14.943 5.30241 15 4.69629 15H1.08008ZM2.40625 13.8174H4.5459C5.20671 13.8174 5.72396 13.7559 6.09766 13.6328C6.47591 13.5098 6.77669 13.3366 7 13.1133C7.31445 12.7988 7.55827 12.3773 7.73145 11.8486C7.90918 11.3154 7.99805 10.6706 7.99805 9.91406C7.99805 8.86589 7.82487 8.06152 7.47852 7.50098C7.13672 6.93587 6.71973 6.55762 6.22754 6.36621C5.87207 6.22949 5.30013 6.16113 4.51172 6.16113H2.40625V13.8174ZM10.582 11.3701C10.582 10.0257 10.9557 9.02995 11.7031 8.38281C12.3275 7.84505 13.0885 7.57617 13.9863 7.57617C14.9844 7.57617 15.8001 7.9043 16.4336 8.56055C17.0671 9.21224 17.3838 10.1146 17.3838 11.2676C17.3838 12.2018 17.2425 12.9378 16.96 13.4756C16.682 14.0088 16.2741 14.4235 15.7363 14.7197C15.2031 15.016 14.6198 15.1641 13.9863 15.1641C12.9701 15.1641 12.1475 14.8382 11.5186 14.1865C10.8942 13.5348 10.582 12.596 10.582 11.3701ZM11.8467 11.3701C11.8467 12.2998 12.0495 12.9971 12.4551 13.4619C12.8607 13.9222 13.3711 14.1523 13.9863 14.1523C14.597 14.1523 15.1051 13.9199 15.5107 13.4551C15.9163 12.9902 16.1191 12.2816 16.1191 11.3291C16.1191 10.4313 15.9141 9.75228 15.5039 9.29199C15.0983 8.82715 14.5924 8.59473 13.9863 8.59473C13.3711 8.59473 12.8607 8.82487 12.4551 9.28516C12.0495 9.74544 11.8467 10.4404 11.8467 11.3701ZM18.8057 15V4.97852H20.0361V15H18.8057ZM21.9502 15V7.74023H23.0576V8.77246C23.5908 7.97493 24.361 7.57617 25.3682 7.57617C25.8057 7.57617 26.2067 7.65592 26.5713 7.81543C26.9404 7.97038 27.2161 8.17546 27.3984 8.43066C27.5807 8.68587 27.7083 8.98893 27.7812 9.33984C27.8268 9.56771 27.8496 9.96647 27.8496 10.5361V15H26.6191V10.584C26.6191 10.0827 26.5713 9.70898 26.4756 9.46289C26.3799 9.21224 26.209 9.014 25.9629 8.86816C25.7214 8.71777 25.4365 8.64258 25.1084 8.64258C24.5843 8.64258 24.1309 8.80892 23.748 9.1416C23.3698 9.47428 23.1807 10.1055 23.1807 11.0352V15H21.9502ZM29.2852 11.3701C29.2852 10.0257 29.6589 9.02995 30.4062 8.38281C31.0306 7.84505 31.7917 7.57617 32.6895 7.57617C33.6875 7.57617 34.5033 7.9043 35.1367 8.56055C35.7702 9.21224 36.0869 10.1146 36.0869 11.2676C36.0869 12.2018 35.9456 12.9378 35.6631 13.4756C35.3851 14.0088 34.9772 14.4235 34.4395 14.7197C33.9062 15.016 33.3229 15.1641 32.6895 15.1641C31.6732 15.1641 30.8506 14.8382 30.2217 14.1865C29.5973 13.5348 29.2852 12.596 29.2852 11.3701ZM30.5498 11.3701C30.5498 12.2998 30.7526 12.9971 31.1582 13.4619C31.5638 13.9222 32.0742 14.1523 32.6895 14.1523C33.3001 14.1523 33.8083 13.9199 34.2139 13.4551C34.6195 12.9902 34.8223 12.2816 34.8223 11.3291C34.8223 10.4313 34.6172 9.75228 34.207 9.29199C33.8014 8.82715 33.2956 8.59473 32.6895 8.59473C32.0742 8.59473 31.5638 8.82487 31.1582 9.28516C30.7526 9.74544 30.5498 10.4404 30.5498 11.3701ZM37.0439 12.833L38.2607 12.6416C38.3291 13.1292 38.5182 13.5029 38.8281 13.7627C39.1426 14.0225 39.5801 14.1523 40.1406 14.1523C40.7057 14.1523 41.125 14.0384 41.3984 13.8105C41.6719 13.5781 41.8086 13.307 41.8086 12.9971C41.8086 12.7191 41.6878 12.5003 41.4463 12.3408C41.2777 12.2314 40.8584 12.0924 40.1885 11.9238C39.2861 11.696 38.6595 11.5 38.3086 11.3359C37.9622 11.1673 37.6979 10.9372 37.5156 10.6455C37.3379 10.3493 37.249 10.0234 37.249 9.66797C37.249 9.3444 37.3219 9.0459 37.4678 8.77246C37.6182 8.49447 37.821 8.26432 38.0762 8.08203C38.2676 7.94076 38.5273 7.82227 38.8555 7.72656C39.1882 7.6263 39.5436 7.57617 39.9219 7.57617C40.4915 7.57617 40.9906 7.6582 41.4189 7.82227C41.8519 7.98633 42.1709 8.20964 42.376 8.49219C42.5811 8.77018 42.7223 9.14388 42.7998 9.61328L41.5967 9.77734C41.542 9.40365 41.3825 9.11198 41.1182 8.90234C40.8584 8.69271 40.4893 8.58789 40.0107 8.58789C39.4456 8.58789 39.0423 8.68132 38.8008 8.86816C38.5592 9.05501 38.4385 9.27376 38.4385 9.52441C38.4385 9.68392 38.4886 9.82747 38.5889 9.95508C38.6891 10.0872 38.8464 10.1966 39.0605 10.2832C39.1836 10.3288 39.5459 10.4336 40.1475 10.5977C41.0179 10.8301 41.624 11.0215 41.9658 11.1719C42.3122 11.3177 42.5833 11.5319 42.7793 11.8145C42.9753 12.097 43.0732 12.4479 43.0732 12.8672C43.0732 13.2773 42.9525 13.6647 42.7109 14.0293C42.474 14.3893 42.1299 14.6696 41.6787 14.8701C41.2275 15.0661 40.7171 15.1641 40.1475 15.1641C39.2041 15.1641 38.484 14.9681 37.9873 14.5762C37.4951 14.1842 37.1807 13.6032 37.0439 12.833ZM39.3066 6.83789L40.2158 4.92383H41.8291L40.3252 6.83789H39.3066ZM44.5088 15V4.97852H45.7393V15H44.5088ZM52.3906 14.1045C51.9349 14.4919 51.4951 14.7653 51.0713 14.9248C50.652 15.0843 50.2008 15.1641 49.7178 15.1641C48.9202 15.1641 48.3073 14.9704 47.8789 14.583C47.4505 14.1911 47.2363 13.6921 47.2363 13.0859C47.2363 12.7305 47.3161 12.4069 47.4756 12.1152C47.6396 11.819 47.8516 11.582 48.1113 11.4043C48.3757 11.2266 48.6719 11.0921 49 11.001C49.2415 10.9372 49.6061 10.8757 50.0938 10.8164C51.0872 10.6979 51.8187 10.5566 52.2881 10.3926C52.2926 10.224 52.2949 10.1169 52.2949 10.0713C52.2949 9.56999 52.1787 9.2168 51.9463 9.01172C51.6318 8.73372 51.1647 8.59473 50.5449 8.59473C49.9661 8.59473 49.5378 8.69727 49.2598 8.90234C48.9863 9.10286 48.7835 9.46061 48.6514 9.97559L47.4482 9.81152C47.5576 9.29655 47.7376 8.88184 47.9883 8.56738C48.2389 8.24837 48.6012 8.00456 49.0752 7.83594C49.5492 7.66276 50.0983 7.57617 50.7227 7.57617C51.3424 7.57617 51.846 7.64909 52.2334 7.79492C52.6208 7.94076 52.9056 8.12533 53.0879 8.34863C53.2702 8.56738 53.3978 8.84538 53.4707 9.18262C53.5117 9.39225 53.5322 9.77051 53.5322 10.3174V11.958C53.5322 13.1019 53.5573 13.8265 53.6074 14.1318C53.6621 14.4326 53.7669 14.722 53.9219 15H52.6367C52.5091 14.7448 52.4271 14.4463 52.3906 14.1045ZM52.2881 11.3564C51.8415 11.5387 51.1715 11.6937 50.2783 11.8213C49.7725 11.8942 49.4147 11.9762 49.2051 12.0674C48.9954 12.1585 48.8337 12.293 48.7197 12.4707C48.6058 12.6439 48.5488 12.8376 48.5488 13.0518C48.5488 13.3799 48.6719 13.6533 48.918 13.8721C49.1686 14.0908 49.5332 14.2002 50.0117 14.2002C50.4857 14.2002 50.9072 14.0977 51.2764 13.8926C51.6455 13.6829 51.9167 13.3981 52.0898 13.0381C52.222 12.7601 52.2881 12.3499 52.2881 11.8076V11.3564ZM53.6689 15C53.4092 15.1595 53.2064 15.3555 53.0605 15.5879C52.9193 15.8249 52.8486 16.0641 52.8486 16.3057C52.8486 16.4971 52.901 16.6589 53.0059 16.791C53.1107 16.9232 53.2816 16.9893 53.5186 16.9893C53.6234 16.9893 53.7305 16.9733 53.8398 16.9414C53.9492 16.9141 54.0495 16.8753 54.1406 16.8252V17.7002C53.8079 17.8597 53.498 17.9395 53.2109 17.9395C52.9785 17.9395 52.7757 17.9053 52.6025 17.8369C52.4294 17.7731 52.2835 17.682 52.165 17.5635C52.0511 17.4495 51.9645 17.3174 51.9053 17.167C51.8506 17.0166 51.8232 16.8548 51.8232 16.6816C51.8232 16.39 51.9053 16.096 52.0693 15.7998C52.2334 15.5081 52.4658 15.2415 52.7666 15H53.6689ZM54.9541 12.833L56.1709 12.6416C56.2393 13.1292 56.4284 13.5029 56.7383 13.7627C57.0527 14.0225 57.4902 14.1523 58.0508 14.1523C58.6159 14.1523 59.0352 14.0384 59.3086 13.8105C59.582 13.5781 59.7188 13.307 59.7188 12.9971C59.7188 12.7191 59.598 12.5003 59.3564 12.3408C59.1878 12.2314 58.7686 12.0924 58.0986 11.9238C57.1963 11.696 56.5697 11.5 56.2188 11.3359C55.8724 11.1673 55.6081 10.9372 55.4258 10.6455C55.248 10.3493 55.1592 10.0234 55.1592 9.66797C55.1592 9.3444 55.2321 9.0459 55.3779 8.77246C55.5283 8.49447 55.7311 8.26432 55.9863 8.08203C56.1777 7.94076 56.4375 7.82227 56.7656 7.72656C57.0983 7.6263 57.4538 7.57617 57.832 7.57617C58.4017 7.57617 58.9007 7.6582 59.3291 7.82227C59.762 7.98633 60.0811 8.20964 60.2861 8.49219C60.4912 8.77018 60.6325 9.14388 60.71 9.61328L59.5068 9.77734C59.4521 9.40365 59.2926 9.11198 59.0283 8.90234C58.7686 8.69271 58.3994 8.58789 57.9209 8.58789C57.3558 8.58789 56.9525 8.68132 56.7109 8.86816C56.4694 9.05501 56.3486 9.27376 56.3486 9.52441C56.3486 9.68392 56.3988 9.82747 56.499 9.95508C56.5993 10.0872 56.7565 10.1966 56.9707 10.2832C57.0938 10.3288 57.4561 10.4336 58.0576 10.5977C58.9281 10.8301 59.5342 11.0215 59.876 11.1719C60.2223 11.3177 60.4935 11.5319 60.6895 11.8145C60.8854 12.097 60.9834 12.4479 60.9834 12.8672C60.9834 13.2773 60.8626 13.6647 60.6211 14.0293C60.3841 14.3893 60.04 14.6696 59.5889 14.8701C59.1377 15.0661 58.6273 15.1641 58.0576 15.1641C57.1143 15.1641 56.3942 14.9681 55.8975 14.5762C55.4053 14.1842 55.0908 13.6032 54.9541 12.833ZM62.4531 15V4.97852H63.6836V10.6934L66.5957 7.74023H68.1885L65.4131 10.4336L68.4688 15H66.9512L64.5518 11.2881L63.6836 12.1221V15H62.4531ZM69.4531 6.39355V4.97852H70.6836V6.39355H69.4531ZM69.4531 15V7.74023H70.6836V15H69.4531ZM77.5332 12.6621L78.8047 12.8193C78.6042 13.5622 78.2327 14.1387 77.6904 14.5488C77.1481 14.959 76.4554 15.1641 75.6123 15.1641C74.5505 15.1641 73.7074 14.8382 73.083 14.1865C72.4632 13.5303 72.1533 12.612 72.1533 11.4316C72.1533 10.2103 72.4678 9.26237 73.0967 8.58789C73.7256 7.91341 74.5413 7.57617 75.5439 7.57617C76.5146 7.57617 77.3076 7.90658 77.9229 8.56738C78.5381 9.22819 78.8457 10.1579 78.8457 11.3564C78.8457 11.4294 78.8434 11.5387 78.8389 11.6846H73.4248C73.4704 12.4821 73.696 13.0928 74.1016 13.5166C74.5072 13.9404 75.013 14.1523 75.6191 14.1523C76.0703 14.1523 76.4554 14.0339 76.7744 13.7969C77.0934 13.5599 77.3464 13.1816 77.5332 12.6621ZM73.4932 10.6729H77.5469C77.4922 10.0622 77.3372 9.60417 77.082 9.29883C76.6901 8.82487 76.182 8.58789 75.5576 8.58789C74.9925 8.58789 74.5163 8.77702 74.1289 9.15527C73.7461 9.53353 73.5342 10.0394 73.4932 10.6729ZM91.5605 11.4863L92.8867 11.8213C92.6087 12.9105 92.1074 13.7422 91.3828 14.3164C90.6628 14.8861 89.7809 15.1709 88.7373 15.1709C87.6572 15.1709 86.7777 14.9521 86.0986 14.5146C85.4242 14.0726 84.9092 13.4346 84.5537 12.6006C84.2028 11.7666 84.0273 10.8711 84.0273 9.91406C84.0273 8.87044 84.2256 7.96126 84.6221 7.18652C85.0231 6.40723 85.5905 5.81706 86.3242 5.41602C87.0625 5.01042 87.8737 4.80762 88.7578 4.80762C89.7604 4.80762 90.6035 5.06283 91.2871 5.57324C91.9707 6.08366 92.4469 6.80143 92.7158 7.72656L91.4102 8.03418C91.1777 7.30501 90.8405 6.77409 90.3984 6.44141C89.9564 6.10872 89.4004 5.94238 88.7305 5.94238C87.9603 5.94238 87.3154 6.12695 86.7959 6.49609C86.2809 6.86523 85.9186 7.36198 85.709 7.98633C85.4993 8.60612 85.3945 9.24642 85.3945 9.90723C85.3945 10.7594 85.5176 11.5046 85.7637 12.1426C86.0143 12.776 86.4017 13.25 86.9258 13.5645C87.4499 13.8789 88.0173 14.0361 88.6279 14.0361C89.3708 14.0361 89.9997 13.8219 90.5146 13.3936C91.0296 12.9652 91.3783 12.3294 91.5605 11.4863ZM99.3398 12.6621L100.611 12.8193C100.411 13.5622 100.039 14.1387 99.4971 14.5488C98.9548 14.959 98.262 15.1641 97.4189 15.1641C96.3571 15.1641 95.514 14.8382 94.8896 14.1865C94.2699 13.5303 93.96 12.612 93.96 11.4316C93.96 10.2103 94.2744 9.26237 94.9033 8.58789C95.5322 7.91341 96.348 7.57617 97.3506 7.57617C98.3213 7.57617 99.1143 7.90658 99.7295 8.56738C100.345 9.22819 100.652 10.1579 100.652 11.3564C100.652 11.4294 100.65 11.5387 100.646 11.6846H95.2314C95.277 12.4821 95.5026 13.0928 95.9082 13.5166C96.3138 13.9404 96.8197 14.1523 97.4258 14.1523C97.877 14.1523 98.262 14.0339 98.5811 13.7969C98.9001 13.5599 99.153 13.1816 99.3398 12.6621ZM95.2998 10.6729H99.3535C99.2988 10.0622 99.1439 9.60417 98.8887 9.29883C98.4967 8.82487 97.9886 8.58789 97.3643 8.58789C96.7992 8.58789 96.3229 8.77702 95.9355 9.15527C95.5527 9.53353 95.3408 10.0394 95.2998 10.6729ZM102.163 15V7.74023H103.271V8.77246C103.804 7.97493 104.574 7.57617 105.581 7.57617C106.019 7.57617 106.42 7.65592 106.784 7.81543C107.153 7.97038 107.429 8.17546 107.611 8.43066C107.794 8.68587 107.921 8.98893 107.994 9.33984C108.04 9.56771 108.062 9.96647 108.062 10.5361V15H106.832V10.584C106.832 10.0827 106.784 9.70898 106.688 9.46289C106.593 9.21224 106.422 9.014 106.176 8.86816C105.934 8.71777 105.649 8.64258 105.321 8.64258C104.797 8.64258 104.344 8.80892 103.961 9.1416C103.583 9.47428 103.394 10.1055 103.394 11.0352V15H102.163ZM112.643 13.8994L112.82 14.9863C112.474 15.0592 112.164 15.0957 111.891 15.0957C111.444 15.0957 111.098 15.0251 110.852 14.8838C110.605 14.7425 110.432 14.5579 110.332 14.3301C110.232 14.0977 110.182 13.6123 110.182 12.874V8.69727H109.279V7.74023H110.182V5.94238L111.405 5.2041V7.74023H112.643V8.69727H111.405V12.9424C111.405 13.2933 111.426 13.5189 111.467 13.6191C111.512 13.7194 111.583 13.7992 111.679 13.8584C111.779 13.9176 111.92 13.9473 112.103 13.9473C112.239 13.9473 112.419 13.9313 112.643 13.8994ZM113.839 15V7.74023H114.946V8.84082C115.229 8.32585 115.489 7.98633 115.726 7.82227C115.967 7.6582 116.231 7.57617 116.519 7.57617C116.933 7.57617 117.355 7.70833 117.783 7.97266L117.359 9.11426C117.059 8.93652 116.758 8.84766 116.457 8.84766C116.188 8.84766 115.947 8.92969 115.732 9.09375C115.518 9.25326 115.366 9.47656 115.274 9.76367C115.138 10.2012 115.069 10.6797 115.069 11.1992V15H113.839ZM123.272 15V13.9336C122.707 14.7539 121.939 15.1641 120.969 15.1641C120.54 15.1641 120.139 15.082 119.766 14.918C119.396 14.7539 119.121 14.5488 118.938 14.3027C118.761 14.0521 118.635 13.7467 118.562 13.3867C118.512 13.1452 118.487 12.7624 118.487 12.2383V7.74023H119.718V11.7666C119.718 12.4092 119.743 12.8421 119.793 13.0654C119.87 13.389 120.035 13.6442 120.285 13.8311C120.536 14.0133 120.846 14.1045 121.215 14.1045C121.584 14.1045 121.93 14.0111 122.254 13.8242C122.577 13.6328 122.805 13.3753 122.938 13.0518C123.074 12.7236 123.143 12.2497 123.143 11.6299V7.74023H124.373V15H123.272ZM126.308 15V7.74023H127.408V8.75879C127.636 8.40332 127.939 8.11849 128.317 7.9043C128.696 7.68555 129.126 7.57617 129.609 7.57617C130.147 7.57617 130.587 7.68783 130.929 7.91113C131.275 8.13444 131.519 8.44661 131.66 8.84766C132.234 8 132.982 7.57617 133.902 7.57617C134.622 7.57617 135.176 7.77669 135.563 8.17773C135.951 8.57422 136.145 9.18717 136.145 10.0166V15H134.921V10.4268C134.921 9.93457 134.88 9.58138 134.798 9.36719C134.72 9.14844 134.577 8.97298 134.367 8.84082C134.158 8.70866 133.911 8.64258 133.629 8.64258C133.118 8.64258 132.695 8.81348 132.357 9.15527C132.02 9.49251 131.852 10.0348 131.852 10.7822V15H130.621V10.2832C130.621 9.73633 130.521 9.32617 130.32 9.05273C130.12 8.7793 129.792 8.64258 129.336 8.64258C128.99 8.64258 128.668 8.73372 128.372 8.91602C128.08 9.09831 127.868 9.36491 127.736 9.71582C127.604 10.0667 127.538 10.5726 127.538 11.2334V15H126.308ZM142.023 15V4.97852H145.804C146.469 4.97852 146.977 5.01042 147.328 5.07422C147.82 5.15625 148.233 5.31348 148.565 5.5459C148.898 5.77376 149.165 6.09505 149.365 6.50977C149.57 6.92448 149.673 7.38021 149.673 7.87695C149.673 8.72917 149.402 9.4515 148.859 10.0439C148.317 10.6318 147.337 10.9258 145.92 10.9258H143.35V15H142.023ZM143.35 9.74316H145.94C146.797 9.74316 147.406 9.58366 147.766 9.26465C148.126 8.94564 148.306 8.49674 148.306 7.91797C148.306 7.4987 148.199 7.14095 147.984 6.84473C147.775 6.54395 147.497 6.3457 147.15 6.25C146.927 6.19076 146.515 6.16113 145.913 6.16113H143.35V9.74316ZM150.712 12.833L151.929 12.6416C151.997 13.1292 152.186 13.5029 152.496 13.7627C152.811 14.0225 153.248 14.1523 153.809 14.1523C154.374 14.1523 154.793 14.0384 155.066 13.8105C155.34 13.5781 155.477 13.307 155.477 12.9971C155.477 12.7191 155.356 12.5003 155.114 12.3408C154.946 12.2314 154.526 12.0924 153.856 11.9238C152.954 11.696 152.327 11.5 151.977 11.3359C151.63 11.1673 151.366 10.9372 151.184 10.6455C151.006 10.3493 150.917 10.0234 150.917 9.66797C150.917 9.3444 150.99 9.0459 151.136 8.77246C151.286 8.49447 151.489 8.26432 151.744 8.08203C151.936 7.94076 152.195 7.82227 152.523 7.72656C152.856 7.6263 153.212 7.57617 153.59 7.57617C154.16 7.57617 154.659 7.6582 155.087 7.82227C155.52 7.98633 155.839 8.20964 156.044 8.49219C156.249 8.77018 156.39 9.14388 156.468 9.61328L155.265 9.77734C155.21 9.40365 155.05 9.11198 154.786 8.90234C154.526 8.69271 154.157 8.58789 153.679 8.58789C153.114 8.58789 152.71 8.68132 152.469 8.86816C152.227 9.05501 152.106 9.27376 152.106 9.52441C152.106 9.68392 152.157 9.82747 152.257 9.95508C152.357 10.0872 152.514 10.1966 152.729 10.2832C152.852 10.3288 153.214 10.4336 153.815 10.5977C154.686 10.8301 155.292 11.0215 155.634 11.1719C155.98 11.3177 156.251 11.5319 156.447 11.8145C156.643 12.097 156.741 12.4479 156.741 12.8672C156.741 13.2773 156.62 13.6647 156.379 14.0293C156.142 14.3893 155.798 14.6696 155.347 14.8701C154.896 15.0661 154.385 15.1641 153.815 15.1641C152.872 15.1641 152.152 14.9681 151.655 14.5762C151.163 14.1842 150.849 13.6032 150.712 12.833ZM158.149 17.7959L158.013 16.6406C158.282 16.7135 158.516 16.75 158.717 16.75C158.99 16.75 159.209 16.7044 159.373 16.6133C159.537 16.5221 159.672 16.3945 159.776 16.2305C159.854 16.1074 159.979 15.8021 160.152 15.3145C160.175 15.2461 160.212 15.1458 160.262 15.0137L157.507 7.74023H158.833L160.344 11.9443C160.54 12.4775 160.715 13.0381 160.87 13.626C161.011 13.0609 161.18 12.5094 161.376 11.9717L162.928 7.74023H164.158L161.396 15.123C161.1 15.9206 160.87 16.4697 160.706 16.7705C160.487 17.1761 160.237 17.4723 159.954 17.6592C159.672 17.8506 159.334 17.9463 158.942 17.9463C158.705 17.9463 158.441 17.8962 158.149 17.7959ZM169.941 12.3408L171.151 12.498C171.019 13.332 170.68 13.986 170.133 14.46C169.59 14.9294 168.923 15.1641 168.13 15.1641C167.136 15.1641 166.337 14.8405 165.73 14.1934C165.129 13.5417 164.828 12.6097 164.828 11.3975C164.828 10.6136 164.958 9.92773 165.218 9.33984C165.478 8.75195 165.872 8.31217 166.4 8.02051C166.934 7.72428 167.512 7.57617 168.137 7.57617C168.925 7.57617 169.57 7.77669 170.071 8.17773C170.573 8.57422 170.894 9.13932 171.035 9.87305L169.839 10.0576C169.725 9.56999 169.522 9.20312 169.23 8.95703C168.943 8.71094 168.595 8.58789 168.185 8.58789C167.565 8.58789 167.061 8.8112 166.674 9.25781C166.286 9.69987 166.093 10.4017 166.093 11.3633C166.093 12.3385 166.28 13.0472 166.653 13.4893C167.027 13.9313 167.515 14.1523 168.116 14.1523C168.599 14.1523 169.003 14.0042 169.326 13.708C169.65 13.4118 169.855 12.9561 169.941 12.3408ZM172.204 15V4.97852H173.435V8.57422C174.009 7.90885 174.733 7.57617 175.608 7.57617C176.146 7.57617 176.613 7.68327 177.01 7.89746C177.406 8.1071 177.689 8.39876 177.857 8.77246C178.031 9.14616 178.117 9.68848 178.117 10.3994V15H176.887V10.3994C176.887 9.78418 176.752 9.33757 176.483 9.05957C176.219 8.77702 175.843 8.63574 175.355 8.63574C174.991 8.63574 174.647 8.73145 174.323 8.92285C174.004 9.1097 173.776 9.36491 173.64 9.68848C173.503 10.012 173.435 10.4587 173.435 11.0283V15H172.204ZM179.539 11.3701C179.539 10.0257 179.913 9.02995 180.66 8.38281C181.285 7.84505 182.046 7.57617 182.943 7.57617C183.941 7.57617 184.757 7.9043 185.391 8.56055C186.024 9.21224 186.341 10.1146 186.341 11.2676C186.341 12.2018 186.2 12.9378 185.917 13.4756C185.639 14.0088 185.231 14.4235 184.693 14.7197C184.16 15.016 183.577 15.1641 182.943 15.1641C181.927 15.1641 181.104 14.8382 180.476 14.1865C179.851 13.5348 179.539 12.596 179.539 11.3701ZM180.804 11.3701C180.804 12.2998 181.007 12.9971 181.412 13.4619C181.818 13.9222 182.328 14.1523 182.943 14.1523C183.554 14.1523 184.062 13.9199 184.468 13.4551C184.873 12.9902 185.076 12.2816 185.076 11.3291C185.076 10.4313 184.871 9.75228 184.461 9.29199C184.055 8.82715 183.549 8.59473 182.943 8.59473C182.328 8.59473 181.818 8.82487 181.412 9.28516C181.007 9.74544 180.804 10.4404 180.804 11.3701ZM190.477 13.8994L190.654 14.9863C190.308 15.0592 189.998 15.0957 189.725 15.0957C189.278 15.0957 188.932 15.0251 188.686 14.8838C188.439 14.7425 188.266 14.5579 188.166 14.3301C188.066 14.0977 188.016 13.6123 188.016 12.874V8.69727H187.113V7.74023H188.016V5.94238L189.239 5.2041V7.74023H190.477V8.69727H189.239V12.9424C189.239 13.2933 189.26 13.5189 189.301 13.6191C189.346 13.7194 189.417 13.7992 189.513 13.8584C189.613 13.9176 189.754 13.9473 189.937 13.9473C190.073 13.9473 190.253 13.9313 190.477 13.8994ZM196.656 12.6621L197.928 12.8193C197.727 13.5622 197.356 14.1387 196.813 14.5488C196.271 14.959 195.578 15.1641 194.735 15.1641C193.674 15.1641 192.83 14.8382 192.206 14.1865C191.586 13.5303 191.276 12.612 191.276 11.4316C191.276 10.2103 191.591 9.26237 192.22 8.58789C192.849 7.91341 193.664 7.57617 194.667 7.57617C195.638 7.57617 196.431 7.90658 197.046 8.56738C197.661 9.22819 197.969 10.1579 197.969 11.3564C197.969 11.4294 197.966 11.5387 197.962 11.6846H192.548C192.593 12.4821 192.819 13.0928 193.225 13.5166C193.63 13.9404 194.136 14.1523 194.742 14.1523C195.193 14.1523 195.578 14.0339 195.897 13.7969C196.216 13.5599 196.469 13.1816 196.656 12.6621ZM192.616 10.6729H196.67C196.615 10.0622 196.46 9.60417 196.205 9.29883C195.813 8.82487 195.305 8.58789 194.681 8.58789C194.116 8.58789 193.639 8.77702 193.252 9.15527C192.869 9.53353 192.657 10.0394 192.616 10.6729ZM199.466 15V7.74023H200.573V8.84082C200.856 8.32585 201.116 7.98633 201.353 7.82227C201.594 7.6582 201.858 7.57617 202.146 7.57617C202.56 7.57617 202.982 7.70833 203.41 7.97266L202.986 9.11426C202.686 8.93652 202.385 8.84766 202.084 8.84766C201.815 8.84766 201.574 8.92969 201.359 9.09375C201.145 9.25326 200.993 9.47656 200.901 9.76367C200.765 10.2012 200.696 10.6797 200.696 11.1992V15H199.466ZM208.879 14.1045C208.423 14.4919 207.983 14.7653 207.56 14.9248C207.14 15.0843 206.689 15.1641 206.206 15.1641C205.409 15.1641 204.796 14.9704 204.367 14.583C203.939 14.1911 203.725 13.6921 203.725 13.0859C203.725 12.7305 203.804 12.4069 203.964 12.1152C204.128 11.819 204.34 11.582 204.6 11.4043C204.864 11.2266 205.16 11.0921 205.488 11.001C205.73 10.9372 206.094 10.8757 206.582 10.8164C207.576 10.6979 208.307 10.5566 208.776 10.3926C208.781 10.224 208.783 10.1169 208.783 10.0713C208.783 9.56999 208.667 9.2168 208.435 9.01172C208.12 8.73372 207.653 8.59473 207.033 8.59473C206.454 8.59473 206.026 8.69727 205.748 8.90234C205.475 9.10286 205.272 9.46061 205.14 9.97559L203.937 9.81152C204.046 9.29655 204.226 8.88184 204.477 8.56738C204.727 8.24837 205.09 8.00456 205.563 7.83594C206.037 7.66276 206.587 7.57617 207.211 7.57617C207.831 7.57617 208.334 7.64909 208.722 7.79492C209.109 7.94076 209.394 8.12533 209.576 8.34863C209.758 8.56738 209.886 8.84538 209.959 9.18262C210 9.39225 210.021 9.77051 210.021 10.3174V11.958C210.021 13.1019 210.046 13.8265 210.096 14.1318C210.15 14.4326 210.255 14.722 210.41 15H209.125C208.997 14.7448 208.915 14.4463 208.879 14.1045ZM208.776 11.3564C208.33 11.5387 207.66 11.6937 206.767 11.8213C206.261 11.8942 205.903 11.9762 205.693 12.0674C205.484 12.1585 205.322 12.293 205.208 12.4707C205.094 12.6439 205.037 12.8376 205.037 13.0518C205.037 13.3799 205.16 13.6533 205.406 13.8721C205.657 14.0908 206.021 14.2002 206.5 14.2002C206.974 14.2002 207.396 14.0977 207.765 13.8926C208.134 13.6829 208.405 13.3981 208.578 13.0381C208.71 12.7601 208.776 12.3499 208.776 11.8076V11.3564ZM211.935 17.7822V7.74023H213.056V8.68359C213.32 8.31445 213.618 8.03874 213.951 7.85645C214.284 7.6696 214.687 7.57617 215.161 7.57617C215.781 7.57617 216.328 7.73568 216.802 8.05469C217.276 8.3737 217.633 8.82487 217.875 9.4082C218.117 9.98698 218.237 10.6227 218.237 11.3154C218.237 12.0583 218.103 12.7282 217.834 13.3252C217.57 13.9176 217.182 14.3734 216.672 14.6924C216.166 15.0068 215.633 15.1641 215.072 15.1641C214.662 15.1641 214.293 15.0775 213.965 14.9043C213.641 14.7311 213.375 14.5124 213.165 14.248V17.7822H211.935ZM213.049 11.4111C213.049 12.3454 213.238 13.0358 213.616 13.4824C213.994 13.929 214.452 14.1523 214.99 14.1523C215.537 14.1523 216.004 13.9222 216.392 13.4619C216.784 12.9971 216.979 12.2793 216.979 11.3086C216.979 10.3835 216.788 9.69076 216.405 9.23047C216.027 8.77018 215.574 8.54004 215.045 8.54004C214.521 8.54004 214.056 8.78613 213.65 9.27832C213.249 9.76595 213.049 10.4769 213.049 11.4111ZM219.734 6.39355V4.97852H220.965V6.39355H219.734ZM219.734 15V7.74023H220.965V15H219.734ZM222.852 6.39355V4.97852H224.082V6.39355H222.852ZM222.852 15V7.74023H224.082V15H222.852ZM229.564 11.7803L230.815 11.6709C230.875 12.1722 231.011 12.5846 231.226 12.9082C231.444 13.2272 231.782 13.487 232.237 13.6875C232.693 13.8835 233.206 13.9814 233.775 13.9814C234.281 13.9814 234.728 13.9062 235.115 13.7559C235.503 13.6055 235.79 13.4004 235.977 13.1406C236.168 12.8763 236.264 12.5892 236.264 12.2793C236.264 11.9648 236.173 11.6914 235.99 11.459C235.808 11.222 235.507 11.0238 235.088 10.8643C234.819 10.7594 234.224 10.5977 233.304 10.3789C232.383 10.1556 231.738 9.94596 231.369 9.75C230.891 9.49935 230.533 9.18945 230.296 8.82031C230.063 8.44661 229.947 8.02962 229.947 7.56934C229.947 7.06348 230.091 6.5918 230.378 6.1543C230.665 5.71224 231.084 5.37728 231.636 5.14941C232.187 4.92155 232.8 4.80762 233.475 4.80762C234.217 4.80762 234.871 4.92839 235.437 5.16992C236.006 5.4069 236.444 5.75781 236.749 6.22266C237.054 6.6875 237.218 7.21387 237.241 7.80176L235.97 7.89746C235.901 7.264 235.669 6.78548 235.272 6.46191C234.881 6.13835 234.299 5.97656 233.529 5.97656C232.727 5.97656 232.142 6.12467 231.772 6.4209C231.408 6.71257 231.226 7.06576 231.226 7.48047C231.226 7.84049 231.355 8.13672 231.615 8.36914C231.87 8.60156 232.536 8.84082 233.611 9.08691C234.691 9.32845 235.432 9.54036 235.833 9.72266C236.416 9.99154 236.847 10.3333 237.125 10.748C237.403 11.1582 237.542 11.6322 237.542 12.1699C237.542 12.7031 237.389 13.2067 237.084 13.6807C236.779 14.1501 236.339 14.5169 235.765 14.7812C235.195 15.041 234.552 15.1709 233.837 15.1709C232.93 15.1709 232.169 15.0387 231.554 14.7744C230.943 14.5101 230.462 14.1136 230.111 13.585C229.765 13.0518 229.583 12.4502 229.564 11.7803ZM239.196 17.7822V7.74023H240.317V8.68359C240.582 8.31445 240.88 8.03874 241.213 7.85645C241.546 7.6696 241.949 7.57617 242.423 7.57617C243.043 7.57617 243.59 7.73568 244.063 8.05469C244.537 8.3737 244.895 8.82487 245.137 9.4082C245.378 9.98698 245.499 10.6227 245.499 11.3154C245.499 12.0583 245.365 12.7282 245.096 13.3252C244.831 13.9176 244.444 14.3734 243.934 14.6924C243.428 15.0068 242.895 15.1641 242.334 15.1641C241.924 15.1641 241.555 15.0775 241.227 14.9043C240.903 14.7311 240.636 14.5124 240.427 14.248V17.7822H239.196ZM240.311 11.4111C240.311 12.3454 240.5 13.0358 240.878 13.4824C241.256 13.929 241.714 14.1523 242.252 14.1523C242.799 14.1523 243.266 13.9222 243.653 13.4619C244.045 12.9971 244.241 12.2793 244.241 11.3086C244.241 10.3835 244.05 9.69076 243.667 9.23047C243.289 8.77018 242.835 8.54004 242.307 8.54004C241.783 8.54004 241.318 8.78613 240.912 9.27832C240.511 9.76595 240.311 10.4769 240.311 11.4111ZM247.338 15V13.5986H248.739V15H247.338ZM254.133 15V14.002L258.754 8.69727C258.23 8.72461 257.767 8.73828 257.366 8.73828H254.406V7.74023H260.34V8.55371L256.409 13.1611L255.65 14.002C256.202 13.9609 256.719 13.9404 257.202 13.9404H260.559V15H254.133ZM265.221 11.3701C265.221 10.0257 265.594 9.02995 266.342 8.38281C266.966 7.84505 267.727 7.57617 268.625 7.57617C269.623 7.57617 270.439 7.9043 271.072 8.56055C271.706 9.21224 272.022 10.1146 272.022 11.2676C272.022 12.2018 271.881 12.9378 271.599 13.4756C271.321 14.0088 270.913 14.4235 270.375 14.7197C269.842 15.016 269.258 15.1641 268.625 15.1641C267.609 15.1641 266.786 14.8382 266.157 14.1865C265.533 13.5348 265.221 12.596 265.221 11.3701ZM266.485 11.3701C266.485 12.2998 266.688 12.9971 267.094 13.4619C267.499 13.9222 268.01 14.1523 268.625 14.1523C269.236 14.1523 269.744 13.9199 270.149 13.4551C270.555 12.9902 270.758 12.2816 270.758 11.3291C270.758 10.4313 270.553 9.75228 270.143 9.29199C269.737 8.82715 269.231 8.59473 268.625 8.59473C268.01 8.59473 267.499 8.82487 267.094 9.28516C266.688 9.74544 266.485 10.4404 266.485 11.3701ZM273.82 15V13.5986H275.222V15H273.82ZM276.91 11.3701C276.91 10.0257 277.284 9.02995 278.031 8.38281C278.656 7.84505 279.417 7.57617 280.314 7.57617C281.312 7.57617 282.128 7.9043 282.762 8.56055C283.395 9.21224 283.712 10.1146 283.712 11.2676C283.712 12.2018 283.571 12.9378 283.288 13.4756C283.01 14.0088 282.602 14.4235 282.064 14.7197C281.531 15.016 280.948 15.1641 280.314 15.1641C279.298 15.1641 278.476 14.8382 277.847 14.1865C277.222 13.5348 276.91 12.596 276.91 11.3701ZM278.175 11.3701C278.175 12.2998 278.378 12.9971 278.783 13.4619C279.189 13.9222 279.699 14.1523 280.314 14.1523C280.925 14.1523 281.433 13.9199 281.839 13.4551C282.244 12.9902 282.447 12.2816 282.447 11.3291C282.447 10.4313 282.242 9.75228 281.832 9.29199C281.426 8.82715 280.921 8.59473 280.314 8.59473C279.699 8.59473 279.189 8.82487 278.783 9.28516C278.378 9.74544 278.175 10.4404 278.175 11.3701ZM285.51 15V13.5986H286.911V15H285.51ZM5.68066 36V34.9336C5.11556 35.7539 4.34766 36.1641 3.37695 36.1641C2.94857 36.1641 2.54753 36.082 2.17383 35.918C1.80469 35.7539 1.52897 35.5488 1.34668 35.3027C1.16895 35.0521 1.04362 34.7467 0.970703 34.3867C0.920573 34.1452 0.895508 33.7624 0.895508 33.2383V28.7402H2.12598V32.7666C2.12598 33.4092 2.15104 33.8421 2.20117 34.0654C2.27865 34.389 2.44271 34.6442 2.69336 34.8311C2.94401 35.0133 3.25391 35.1045 3.62305 35.1045C3.99219 35.1045 4.33854 35.0111 4.66211 34.8242C4.98568 34.6328 5.21354 34.3753 5.3457 34.0518C5.48242 33.7236 5.55078 33.2497 5.55078 32.6299V28.7402H6.78125V36H5.68066ZM8.68848 36V25.9785H9.91895V36H8.68848ZM12.1816 36V34.5986H13.583V36H12.1816ZM19.7832 36V25.9785H23.2354C24.0146 25.9785 24.6094 26.0264 25.0195 26.1221C25.5938 26.2542 26.0837 26.4935 26.4893 26.8398C27.0179 27.2865 27.4121 27.8584 27.6719 28.5557C27.9362 29.2484 28.0684 30.0413 28.0684 30.9346C28.0684 31.6956 27.9795 32.3701 27.8018 32.958C27.624 33.5459 27.3962 34.0335 27.1182 34.4209C26.8402 34.8037 26.5348 35.1068 26.2021 35.3301C25.874 35.5488 25.4753 35.7152 25.0059 35.8291C24.541 35.943 24.0055 36 23.3994 36H19.7832ZM21.1094 34.8174H23.249C23.9098 34.8174 24.4271 34.7559 24.8008 34.6328C25.179 34.5098 25.4798 34.3366 25.7031 34.1133C26.0176 33.7988 26.2614 33.3773 26.4346 32.8486C26.6123 32.3154 26.7012 31.6706 26.7012 30.9141C26.7012 29.8659 26.528 29.0615 26.1816 28.501C25.8398 27.9359 25.4229 27.5576 24.9307 27.3662C24.5752 27.2295 24.0033 27.1611 23.2148 27.1611H21.1094V34.8174ZM29.6885 38.7959L29.5518 37.6406C29.8206 37.7135 30.0553 37.75 30.2559 37.75C30.5293 37.75 30.748 37.7044 30.9121 37.6133C31.0762 37.5221 31.2106 37.3945 31.3154 37.2305C31.3929 37.1074 31.5182 36.8021 31.6914 36.3145C31.7142 36.2461 31.7507 36.1458 31.8008 36.0137L29.0459 28.7402H30.3721L31.8828 32.9443C32.0788 33.4775 32.2542 34.0381 32.4092 34.626C32.5505 34.0609 32.7191 33.5094 32.915 32.9717L34.4668 28.7402H35.6973L32.9355 36.123C32.6393 36.9206 32.4092 37.4697 32.2451 37.7705C32.0264 38.1761 31.7757 38.4723 31.4932 38.6592C31.2106 38.8506 30.8734 38.9463 30.4814 38.9463C30.2445 38.9463 29.9801 38.8962 29.6885 38.7959ZM36.7295 36V28.7402H37.8369V29.8408C38.1195 29.3258 38.3792 28.9863 38.6162 28.8223C38.8577 28.6582 39.1221 28.5762 39.4092 28.5762C39.8239 28.5762 40.2454 28.7083 40.6738 28.9727L40.25 30.1143C39.9492 29.9365 39.6484 29.8477 39.3477 29.8477C39.0788 29.8477 38.8372 29.9297 38.623 30.0938C38.4089 30.2533 38.2562 30.4766 38.165 30.7637C38.0283 31.2012 37.96 31.6797 37.96 32.1992V36H36.7295ZM46.375 33.6621L47.6465 33.8193C47.446 34.5622 47.0745 35.1387 46.5322 35.5488C45.9899 35.959 45.2972 36.1641 44.4541 36.1641C43.3923 36.1641 42.5492 35.8382 41.9248 35.1865C41.305 34.5303 40.9951 33.612 40.9951 32.4316C40.9951 31.2103 41.3096 30.2624 41.9385 29.5879C42.5674 28.9134 43.3831 28.5762 44.3857 28.5762C45.3564 28.5762 46.1494 28.9066 46.7646 29.5674C47.3799 30.2282 47.6875 31.1579 47.6875 32.3564C47.6875 32.4294 47.6852 32.5387 47.6807 32.6846H42.2666C42.3122 33.4821 42.5378 34.0928 42.9434 34.5166C43.349 34.9404 43.8548 35.1523 44.4609 35.1523C44.9121 35.1523 45.2972 35.0339 45.6162 34.7969C45.9352 34.5599 46.1882 34.1816 46.375 33.6621ZM42.335 31.6729H46.3887C46.334 31.0622 46.179 30.6042 45.9238 30.2988C45.5319 29.8249 45.0238 29.5879 44.3994 29.5879C43.8343 29.5879 43.3581 29.777 42.9707 30.1553C42.5879 30.5335 42.376 31.0394 42.335 31.6729ZM49.2051 36V25.9785H50.4355V31.6934L53.3477 28.7402H54.9404L52.165 31.4336L55.2207 36H53.7031L51.3037 32.2881L50.4355 33.1221V36H49.2051ZM60.9355 33.3408L62.1455 33.498C62.0133 34.332 61.6738 34.986 61.127 35.46C60.5846 35.9294 59.917 36.1641 59.124 36.1641C58.1305 36.1641 57.3307 35.8405 56.7246 35.1934C56.123 34.5417 55.8223 33.6097 55.8223 32.3975C55.8223 31.6136 55.9521 30.9277 56.2119 30.3398C56.4717 29.752 56.8659 29.3122 57.3945 29.0205C57.9277 28.7243 58.5065 28.5762 59.1309 28.5762C59.9193 28.5762 60.5641 28.7767 61.0654 29.1777C61.5667 29.5742 61.888 30.1393 62.0293 30.873L60.833 31.0576C60.7191 30.57 60.5163 30.2031 60.2246 29.957C59.9375 29.7109 59.5889 29.5879 59.1787 29.5879C58.5589 29.5879 58.0553 29.8112 57.668 30.2578C57.2806 30.6999 57.0869 31.4017 57.0869 32.3633C57.0869 33.3385 57.2738 34.0472 57.6475 34.4893C58.0212 34.9313 58.5088 35.1523 59.1104 35.1523C59.5934 35.1523 59.9967 35.0042 60.3203 34.708C60.6439 34.4118 60.849 33.9561 60.9355 33.3408ZM63.1436 38.7959L63.0068 37.6406C63.2757 37.7135 63.5104 37.75 63.7109 37.75C63.9844 37.75 64.2031 37.7044 64.3672 37.6133C64.5312 37.5221 64.6657 37.3945 64.7705 37.2305C64.848 37.1074 64.9733 36.8021 65.1465 36.3145C65.1693 36.2461 65.2057 36.1458 65.2559 36.0137L62.501 28.7402H63.8271L65.3379 32.9443C65.5339 33.4775 65.7093 34.0381 65.8643 34.626C66.0055 34.0609 66.1742 33.5094 66.3701 32.9717L67.9219 28.7402H69.1523L66.3906 36.123C66.0944 36.9206 65.8643 37.4697 65.7002 37.7705C65.4814 38.1761 65.2308 38.4723 64.9482 38.6592C64.6657 38.8506 64.3285 38.9463 63.9365 38.9463C63.6995 38.9463 63.4352 38.8962 63.1436 38.7959ZM70.1914 27.4072V25.9785H71.4219V27.4072H70.1914ZM68.6328 38.8164L68.8652 37.7705C69.1113 37.8343 69.305 37.8662 69.4463 37.8662C69.6969 37.8662 69.8838 37.7819 70.0068 37.6133C70.1299 37.4492 70.1914 37.0345 70.1914 36.3691V28.7402H71.4219V36.3965C71.4219 37.2897 71.3057 37.9118 71.0732 38.2627C70.777 38.7184 70.2848 38.9463 69.5967 38.9463C69.264 38.9463 68.9427 38.903 68.6328 38.8164ZM73.3154 36V28.7402H74.4229V29.7725C74.9561 28.9749 75.7262 28.5762 76.7334 28.5762C77.1709 28.5762 77.5719 28.6559 77.9365 28.8154C78.3057 28.9704 78.5814 29.1755 78.7637 29.4307C78.946 29.6859 79.0736 29.9889 79.1465 30.3398C79.1921 30.5677 79.2148 30.9665 79.2148 31.5361V36H77.9844V31.584C77.9844 31.0827 77.9365 30.709 77.8408 30.4629C77.7451 30.2122 77.5742 30.014 77.3281 29.8682C77.0866 29.7178 76.8018 29.6426 76.4736 29.6426C75.9495 29.6426 75.4961 29.8089 75.1133 30.1416C74.735 30.4743 74.5459 31.1055 74.5459 32.0352V36H73.3154ZM85.8457 35.1045C85.39 35.4919 84.9502 35.7653 84.5264 35.9248C84.1071 36.0843 83.6559 36.1641 83.1729 36.1641C82.3753 36.1641 81.7624 35.9704 81.334 35.583C80.9056 35.1911 80.6914 34.6921 80.6914 34.0859C80.6914 33.7305 80.7712 33.4069 80.9307 33.1152C81.0947 32.819 81.3066 32.582 81.5664 32.4043C81.8307 32.2266 82.127 32.0921 82.4551 32.001C82.6966 31.9372 83.0612 31.8757 83.5488 31.8164C84.5423 31.6979 85.2738 31.5566 85.7432 31.3926C85.7477 31.224 85.75 31.1169 85.75 31.0713C85.75 30.57 85.6338 30.2168 85.4014 30.0117C85.0869 29.7337 84.6198 29.5947 84 29.5947C83.4212 29.5947 82.9928 29.6973 82.7148 29.9023C82.4414 30.1029 82.2386 30.4606 82.1064 30.9756L80.9033 30.8115C81.0127 30.2965 81.1927 29.8818 81.4434 29.5674C81.694 29.2484 82.0563 29.0046 82.5303 28.8359C83.0042 28.6628 83.5534 28.5762 84.1777 28.5762C84.7975 28.5762 85.3011 28.6491 85.6885 28.7949C86.0758 28.9408 86.3607 29.1253 86.543 29.3486C86.7253 29.5674 86.8529 29.8454 86.9258 30.1826C86.9668 30.3923 86.9873 30.7705 86.9873 31.3174V32.958C86.9873 34.1019 87.0124 34.8265 87.0625 35.1318C87.1172 35.4326 87.222 35.722 87.377 36H86.0918C85.9642 35.7448 85.8822 35.4463 85.8457 35.1045ZM85.7432 32.3564C85.2965 32.5387 84.6266 32.6937 83.7334 32.8213C83.2275 32.8942 82.8698 32.9762 82.6602 33.0674C82.4505 33.1585 82.2887 33.293 82.1748 33.4707C82.0609 33.6439 82.0039 33.8376 82.0039 34.0518C82.0039 34.3799 82.127 34.6533 82.373 34.8721C82.6237 35.0908 82.9883 35.2002 83.4668 35.2002C83.9408 35.2002 84.3623 35.0977 84.7314 34.8926C85.1006 34.6829 85.3717 34.3981 85.5449 34.0381C85.6771 33.7601 85.7432 33.3499 85.7432 32.8076V32.3564ZM92.4629 33.3545L93.6934 33.1904C93.8346 33.8877 94.0739 34.3913 94.4111 34.7012C94.7529 35.0065 95.1676 35.1592 95.6553 35.1592C96.234 35.1592 96.7217 34.9587 97.1182 34.5576C97.5192 34.1566 97.7197 33.6598 97.7197 33.0674C97.7197 32.5023 97.5352 32.0374 97.166 31.6729C96.7969 31.3037 96.3275 31.1191 95.7578 31.1191C95.5254 31.1191 95.236 31.1647 94.8896 31.2559L95.0264 30.1758C95.1084 30.1849 95.1745 30.1895 95.2246 30.1895C95.7487 30.1895 96.2204 30.0527 96.6396 29.7793C97.0589 29.5059 97.2686 29.0843 97.2686 28.5146C97.2686 28.0635 97.1159 27.6898 96.8105 27.3936C96.5052 27.0973 96.111 26.9492 95.6279 26.9492C95.1494 26.9492 94.7507 27.0996 94.4316 27.4004C94.1126 27.7012 93.9076 28.1523 93.8164 28.7539L92.5859 28.5352C92.7363 27.7103 93.0781 27.0723 93.6113 26.6211C94.1445 26.1654 94.8076 25.9375 95.6006 25.9375C96.1475 25.9375 96.651 26.056 97.1113 26.293C97.5716 26.5254 97.9225 26.8444 98.1641 27.25C98.4102 27.6556 98.5332 28.0863 98.5332 28.542C98.5332 28.9749 98.417 29.3691 98.1846 29.7246C97.9521 30.0801 97.6081 30.3626 97.1523 30.5723C97.7448 30.709 98.2051 30.9938 98.5332 31.4268C98.8613 31.8551 99.0254 32.3929 99.0254 33.04C99.0254 33.915 98.7064 34.6579 98.0684 35.2686C97.4303 35.8747 96.6237 36.1777 95.6484 36.1777C94.7689 36.1777 94.0374 35.9157 93.4541 35.3916C92.8753 34.8675 92.5449 34.1885 92.4629 33.3545ZM100.331 27.291V26.1084H106.818V27.0654C106.18 27.7445 105.547 28.6468 104.918 29.7725C104.294 30.8981 103.811 32.0557 103.469 33.2451C103.223 34.0837 103.065 35.002 102.997 36H101.732C101.746 35.2116 101.901 34.2591 102.197 33.1426C102.493 32.026 102.917 30.9505 103.469 29.916C104.025 28.877 104.615 28.002 105.239 27.291H100.331ZM107.461 36.1709L110.366 25.8076H111.351L108.452 36.1709H107.461ZM115.883 36V33.6006H111.535V32.4727L116.108 25.9785H117.113V32.4727H118.467V33.6006H117.113V36H115.883ZM115.883 32.4727V27.9541L112.745 32.4727H115.883ZM119.813 27.291V26.1084H126.301V27.0654C125.663 27.7445 125.029 28.6468 124.4 29.7725C123.776 30.8981 123.293 32.0557 122.951 33.2451C122.705 34.0837 122.548 35.002 122.479 36H121.215C121.229 35.2116 121.383 34.2591 121.68 33.1426C121.976 32.026 122.4 30.9505 122.951 29.916C123.507 28.877 124.097 28.002 124.722 27.291H119.813ZM128.188 36V34.5986H129.589V36C129.589 36.515 129.498 36.9297 129.315 37.2441C129.133 37.5632 128.844 37.8092 128.447 37.9824L128.105 37.4561C128.365 37.3421 128.557 37.1735 128.68 36.9502C128.803 36.7314 128.871 36.4147 128.885 36H128.188ZM135.317 33.375L136.609 33.2656C136.705 33.8945 136.926 34.3685 137.272 34.6875C137.623 35.002 138.045 35.1592 138.537 35.1592C139.13 35.1592 139.631 34.9359 140.041 34.4893C140.451 34.0426 140.656 33.4502 140.656 32.7119C140.656 32.0101 140.458 31.4564 140.062 31.0508C139.67 30.6452 139.155 30.4424 138.517 30.4424C138.12 30.4424 137.762 30.5335 137.443 30.7158C137.124 30.8936 136.874 31.126 136.691 31.4131L135.536 31.2627L136.507 26.1152H141.49V27.291H137.491L136.951 29.9844C137.553 29.5651 138.184 29.3555 138.845 29.3555C139.72 29.3555 140.458 29.6585 141.06 30.2646C141.661 30.8708 141.962 31.6501 141.962 32.6025C141.962 33.5094 141.698 34.2933 141.169 34.9541C140.526 35.7653 139.649 36.1709 138.537 36.1709C137.626 36.1709 136.881 35.9157 136.302 35.4053C135.728 34.8949 135.399 34.2181 135.317 33.375ZM143.11 31.0576C143.11 29.8727 143.231 28.9202 143.473 28.2002C143.719 27.4756 144.081 26.9173 144.56 26.5254C145.043 26.1335 145.649 25.9375 146.378 25.9375C146.916 25.9375 147.387 26.0469 147.793 26.2656C148.199 26.4798 148.534 26.792 148.798 27.2021C149.062 27.6077 149.27 28.1045 149.42 28.6924C149.57 29.2757 149.646 30.0641 149.646 31.0576C149.646 32.2334 149.525 33.1836 149.283 33.9082C149.042 34.6283 148.679 35.1865 148.196 35.583C147.718 35.9749 147.112 36.1709 146.378 36.1709C145.412 36.1709 144.653 35.8245 144.102 35.1318C143.441 34.2979 143.11 32.9398 143.11 31.0576ZM144.375 31.0576C144.375 32.7028 144.566 33.7988 144.949 34.3457C145.337 34.888 145.813 35.1592 146.378 35.1592C146.943 35.1592 147.417 34.8857 147.8 34.3389C148.187 33.792 148.381 32.6982 148.381 31.0576C148.381 29.4079 148.187 28.3118 147.8 27.7695C147.417 27.2272 146.938 26.9561 146.364 26.9561C145.799 26.9561 145.348 27.1953 145.011 27.6738C144.587 28.2845 144.375 29.4124 144.375 31.0576ZM150.767 32.9922V31.7549H154.547V32.9922H150.767ZM155.565 33.375L156.857 33.2656C156.953 33.8945 157.174 34.3685 157.521 34.6875C157.871 35.002 158.293 35.1592 158.785 35.1592C159.378 35.1592 159.879 34.9359 160.289 34.4893C160.699 34.0426 160.904 33.4502 160.904 32.7119C160.904 32.0101 160.706 31.4564 160.31 31.0508C159.918 30.6452 159.403 30.4424 158.765 30.4424C158.368 30.4424 158.01 30.5335 157.691 30.7158C157.372 30.8936 157.122 31.126 156.939 31.4131L155.784 31.2627L156.755 26.1152H161.738V27.291H157.739L157.199 29.9844C157.801 29.5651 158.432 29.3555 159.093 29.3555C159.968 29.3555 160.706 29.6585 161.308 30.2646C161.909 30.8708 162.21 31.6501 162.21 32.6025C162.21 33.5094 161.946 34.2933 161.417 34.9541C160.774 35.7653 159.897 36.1709 158.785 36.1709C157.874 36.1709 157.129 35.9157 156.55 35.4053C155.976 34.8949 155.647 34.2181 155.565 33.375ZM169.825 34.8174V36H163.201C163.192 35.7038 163.24 35.4189 163.345 35.1455C163.513 34.6943 163.782 34.25 164.151 33.8125C164.525 33.375 165.063 32.8691 165.765 32.2949C166.854 31.4017 167.59 30.6953 167.973 30.1758C168.355 29.6517 168.547 29.1572 168.547 28.6924C168.547 28.2048 168.371 27.7946 168.021 27.4619C167.674 27.1247 167.221 26.9561 166.66 26.9561C166.068 26.9561 165.594 27.1338 165.238 27.4893C164.883 27.8447 164.703 28.3369 164.698 28.9658L163.434 28.8359C163.52 27.8926 163.846 27.1748 164.411 26.6826C164.976 26.1859 165.735 25.9375 166.688 25.9375C167.649 25.9375 168.41 26.2041 168.971 26.7373C169.531 27.2705 169.812 27.9313 169.812 28.7197C169.812 29.1208 169.729 29.515 169.565 29.9023C169.401 30.2897 169.128 30.6976 168.745 31.126C168.367 31.5544 167.736 32.1423 166.852 32.8896C166.113 33.5094 165.639 33.931 165.43 34.1543C165.22 34.373 165.047 34.5941 164.91 34.8174H169.825ZM173.045 30.5654C172.535 30.3786 172.156 30.112 171.91 29.7656C171.664 29.4193 171.541 29.0046 171.541 28.5215C171.541 27.7923 171.803 27.1794 172.327 26.6826C172.851 26.1859 173.549 25.9375 174.419 25.9375C175.294 25.9375 175.998 26.1927 176.531 26.7031C177.064 27.209 177.331 27.8265 177.331 28.5557C177.331 29.0205 177.208 29.4261 176.962 29.7725C176.72 30.1143 176.351 30.3786 175.854 30.5654C176.47 30.766 176.937 31.0895 177.256 31.5361C177.579 31.9827 177.741 32.516 177.741 33.1357C177.741 33.9925 177.438 34.7126 176.832 35.2959C176.226 35.8792 175.428 36.1709 174.439 36.1709C173.451 36.1709 172.653 35.8792 172.047 35.2959C171.441 34.708 171.138 33.9766 171.138 33.1016C171.138 32.4499 171.302 31.9053 171.63 31.4678C171.963 31.0257 172.434 30.7249 173.045 30.5654ZM172.799 28.4805C172.799 28.9544 172.951 29.3418 173.257 29.6426C173.562 29.9434 173.959 30.0938 174.446 30.0938C174.92 30.0938 175.308 29.9456 175.608 29.6494C175.914 29.3486 176.066 28.9818 176.066 28.5488C176.066 28.0977 175.909 27.7194 175.595 27.4141C175.285 27.1042 174.897 26.9492 174.433 26.9492C173.963 26.9492 173.574 27.0996 173.264 27.4004C172.954 27.7012 172.799 28.0612 172.799 28.4805ZM172.402 33.1084C172.402 33.4593 172.484 33.7988 172.648 34.127C172.817 34.4551 173.065 34.7103 173.394 34.8926C173.722 35.0703 174.075 35.1592 174.453 35.1592C175.041 35.1592 175.526 34.9701 175.909 34.5918C176.292 34.2135 176.483 33.7327 176.483 33.1494C176.483 32.557 176.285 32.0671 175.889 31.6797C175.497 31.2923 175.005 31.0986 174.412 31.0986C173.833 31.0986 173.353 31.29 172.97 31.6729C172.591 32.0557 172.402 32.5342 172.402 33.1084ZM185.09 36L182.431 25.9785H183.791L185.315 32.5479C185.479 33.236 185.621 33.9196 185.739 34.5986C185.994 33.5277 186.145 32.9102 186.19 32.7461L188.098 25.9785H189.697L191.133 31.0508C191.493 32.3086 191.753 33.4912 191.912 34.5986C192.04 33.9652 192.206 33.2383 192.411 32.418L193.983 25.9785H195.316L192.568 36H191.29L189.178 28.3643C189 27.7262 188.895 27.3343 188.863 27.1885C188.758 27.6488 188.66 28.0407 188.569 28.3643L186.443 36H185.09ZM196.13 36V28.7402H197.237V29.8408C197.52 29.3258 197.78 28.9863 198.017 28.8223C198.258 28.6582 198.522 28.5762 198.81 28.5762C199.224 28.5762 199.646 28.7083 200.074 28.9727L199.65 30.1143C199.35 29.9365 199.049 29.8477 198.748 29.8477C198.479 29.8477 198.238 29.9297 198.023 30.0938C197.809 30.2533 197.657 30.4766 197.565 30.7637C197.429 31.2012 197.36 31.6797 197.36 32.1992V36H196.13ZM200.348 32.3701C200.348 31.0257 200.721 30.0299 201.469 29.3828C202.093 28.8451 202.854 28.5762 203.752 28.5762C204.75 28.5762 205.566 28.9043 206.199 29.5605C206.833 30.2122 207.149 31.1146 207.149 32.2676C207.149 33.2018 207.008 33.9378 206.726 34.4756C206.448 35.0088 206.04 35.4235 205.502 35.7197C204.969 36.016 204.385 36.1641 203.752 36.1641C202.736 36.1641 201.913 35.8382 201.284 35.1865C200.66 34.5348 200.348 33.596 200.348 32.3701ZM201.612 32.3701C201.612 33.2998 201.815 33.9971 202.221 34.4619C202.626 34.9222 203.137 35.1523 203.752 35.1523C204.363 35.1523 204.871 34.9199 205.276 34.4551C205.682 33.9902 205.885 33.2816 205.885 32.3291C205.885 31.4313 205.68 30.7523 205.27 30.292C204.864 29.8271 204.358 29.5947 203.752 29.5947C203.137 29.5947 202.626 29.8249 202.221 30.2852C201.815 30.7454 201.612 31.4404 201.612 32.3701ZM213.336 33.3408L214.546 33.498C214.414 34.332 214.074 34.986 213.527 35.46C212.985 35.9294 212.317 36.1641 211.524 36.1641C210.531 36.1641 209.731 35.8405 209.125 35.1934C208.523 34.5417 208.223 33.6097 208.223 32.3975C208.223 31.6136 208.353 30.9277 208.612 30.3398C208.872 29.752 209.266 29.3122 209.795 29.0205C210.328 28.7243 210.907 28.5762 211.531 28.5762C212.32 28.5762 212.965 28.7767 213.466 29.1777C213.967 29.5742 214.288 30.1393 214.43 30.873L213.233 31.0576C213.119 30.57 212.917 30.2031 212.625 29.957C212.338 29.7109 211.989 29.5879 211.579 29.5879C210.959 29.5879 210.456 29.8112 210.068 30.2578C209.681 30.6999 209.487 31.4017 209.487 32.3633C209.487 33.3385 209.674 34.0472 210.048 34.4893C210.422 34.9313 210.909 35.1523 211.511 35.1523C211.994 35.1523 212.397 35.0042 212.721 34.708C213.044 34.4118 213.249 33.9561 213.336 33.3408ZM215.585 32.0762L214.696 32.8281V31.748L215.585 30.9961V25.9785H216.809V29.957L217.731 29.1709V30.2441L216.809 31.0303V36H215.585V32.0762ZM223.453 35.1045C222.997 35.4919 222.558 35.7653 222.134 35.9248C221.715 36.0843 221.263 36.1641 220.78 36.1641C219.983 36.1641 219.37 35.9704 218.941 35.583C218.513 35.1911 218.299 34.6921 218.299 34.0859C218.299 33.7305 218.379 33.4069 218.538 33.1152C218.702 32.819 218.914 32.582 219.174 32.4043C219.438 32.2266 219.734 32.0921 220.062 32.001C220.304 31.9372 220.669 31.8757 221.156 31.8164C222.15 31.6979 222.881 31.5566 223.351 31.3926C223.355 31.224 223.357 31.1169 223.357 31.0713C223.357 30.57 223.241 30.2168 223.009 30.0117C222.694 29.7337 222.227 29.5947 221.607 29.5947C221.029 29.5947 220.6 29.6973 220.322 29.9023C220.049 30.1029 219.846 30.4606 219.714 30.9756L218.511 30.8115C218.62 30.2965 218.8 29.8818 219.051 29.5674C219.301 29.2484 219.664 29.0046 220.138 28.8359C220.612 28.6628 221.161 28.5762 221.785 28.5762C222.405 28.5762 222.909 28.6491 223.296 28.7949C223.683 28.9408 223.968 29.1253 224.15 29.3486C224.333 29.5674 224.46 29.8454 224.533 30.1826C224.574 30.3923 224.595 30.7705 224.595 31.3174V32.958C224.595 34.1019 224.62 34.8265 224.67 35.1318C224.725 35.4326 224.829 35.722 224.984 36H223.699C223.572 35.7448 223.49 35.4463 223.453 35.1045ZM223.351 32.3564C222.904 32.5387 222.234 32.6937 221.341 32.8213C220.835 32.8942 220.477 32.9762 220.268 33.0674C220.058 33.1585 219.896 33.293 219.782 33.4707C219.668 33.6439 219.611 33.8376 219.611 34.0518C219.611 34.3799 219.734 34.6533 219.98 34.8721C220.231 35.0908 220.596 35.2002 221.074 35.2002C221.548 35.2002 221.97 35.0977 222.339 34.8926C222.708 34.6829 222.979 34.3981 223.152 34.0381C223.285 33.7601 223.351 33.3499 223.351 32.8076V32.3564ZM227.849 36L225.627 28.7402H226.898L228.054 32.9307L228.484 34.4893C228.503 34.4118 228.628 33.9128 228.86 32.9922L230.016 28.7402H231.28L232.367 32.9512L232.729 34.3389L233.146 32.9375L234.391 28.7402H235.587L233.317 36H232.039L230.884 31.6523L230.604 30.415L229.134 36H227.849ZM1.06641 57V46.9785H2.42676L7.69043 54.8467V46.9785H8.96191V57H7.60156L2.33789 49.125V57H1.06641ZM11.4229 57V46.9785H12.749V57H11.4229ZM15.0938 57V46.9785H18.874C19.5394 46.9785 20.0475 47.0104 20.3984 47.0742C20.8906 47.1562 21.3031 47.3135 21.6357 47.5459C21.9684 47.7738 22.235 48.0951 22.4355 48.5098C22.6406 48.9245 22.7432 49.3802 22.7432 49.877C22.7432 50.7292 22.472 51.4515 21.9297 52.0439C21.3874 52.6318 20.4076 52.9258 18.9902 52.9258H16.4199V57H15.0938ZM16.4199 51.7432H19.0107C19.8675 51.7432 20.4759 51.5837 20.8359 51.2646C21.196 50.9456 21.376 50.4967 21.376 49.918C21.376 49.4987 21.2689 49.141 21.0547 48.8447C20.8451 48.5439 20.5671 48.3457 20.2207 48.25C19.9974 48.1908 19.585 48.1611 18.9834 48.1611H16.4199V51.7432ZM24.6162 51.1416V49.7402H26.0176V51.1416H24.6162ZM24.6162 57V55.5986H26.0176V57H24.6162ZM33.6191 51.5654C33.1087 51.3786 32.7305 51.112 32.4844 50.7656C32.2383 50.4193 32.1152 50.0046 32.1152 49.5215C32.1152 48.7923 32.3773 48.1794 32.9014 47.6826C33.4255 47.1859 34.1227 46.9375 34.9932 46.9375C35.8682 46.9375 36.5723 47.1927 37.1055 47.7031C37.6387 48.209 37.9053 48.8265 37.9053 49.5557C37.9053 50.0205 37.7822 50.4261 37.5361 50.7725C37.2946 51.1143 36.9255 51.3786 36.4287 51.5654C37.0439 51.766 37.5111 52.0895 37.8301 52.5361C38.1536 52.9827 38.3154 53.516 38.3154 54.1357C38.3154 54.9925 38.0124 55.7126 37.4062 56.2959C36.8001 56.8792 36.0026 57.1709 35.0137 57.1709C34.0247 57.1709 33.2272 56.8792 32.6211 56.2959C32.015 55.708 31.7119 54.9766 31.7119 54.1016C31.7119 53.4499 31.876 52.9053 32.2041 52.4678C32.5368 52.0257 33.0085 51.7249 33.6191 51.5654ZM33.373 49.4805C33.373 49.9544 33.5257 50.3418 33.8311 50.6426C34.1364 50.9434 34.5329 51.0938 35.0205 51.0938C35.4945 51.0938 35.8818 50.9456 36.1826 50.6494C36.488 50.3486 36.6406 49.9818 36.6406 49.5488C36.6406 49.0977 36.4834 48.7194 36.1689 48.4141C35.859 48.1042 35.4717 47.9492 35.0068 47.9492C34.5374 47.9492 34.1478 48.0996 33.8379 48.4004C33.528 48.7012 33.373 49.0612 33.373 49.4805ZM32.9766 54.1084C32.9766 54.4593 33.0586 54.7988 33.2227 55.127C33.3913 55.4551 33.6396 55.7103 33.9678 55.8926C34.2959 56.0703 34.6491 56.1592 35.0273 56.1592C35.6152 56.1592 36.1006 55.9701 36.4834 55.5918C36.8662 55.2135 37.0576 54.7327 37.0576 54.1494C37.0576 53.557 36.8594 53.0671 36.4629 52.6797C36.071 52.2923 35.5788 52.0986 34.9863 52.0986C34.4076 52.0986 33.9268 52.29 33.5439 52.6729C33.1657 53.0557 32.9766 53.5342 32.9766 54.1084ZM39.7031 54.6826L40.8857 54.5732C40.986 55.1292 41.1774 55.5326 41.46 55.7832C41.7425 56.0339 42.1048 56.1592 42.5469 56.1592C42.9251 56.1592 43.2555 56.0726 43.5381 55.8994C43.8252 55.7262 44.0599 55.4961 44.2422 55.209C44.4245 54.9173 44.5771 54.5254 44.7002 54.0332C44.8232 53.541 44.8848 53.0397 44.8848 52.5293C44.8848 52.4746 44.8825 52.3926 44.8779 52.2832C44.6318 52.6751 44.2946 52.9941 43.8662 53.2402C43.4424 53.4818 42.9821 53.6025 42.4854 53.6025C41.6559 53.6025 40.9541 53.3018 40.3799 52.7002C39.8057 52.0986 39.5186 51.3057 39.5186 50.3213C39.5186 49.305 39.8171 48.487 40.4141 47.8672C41.0156 47.2474 41.7676 46.9375 42.6699 46.9375C43.3216 46.9375 43.9163 47.113 44.4541 47.4639C44.9964 47.8148 45.4066 48.3161 45.6846 48.9678C45.9671 49.6149 46.1084 50.5537 46.1084 51.7842C46.1084 53.0648 45.9694 54.0856 45.6914 54.8467C45.4134 55.6032 44.9987 56.1797 44.4473 56.5762C43.9004 56.9727 43.2578 57.1709 42.5195 57.1709C41.7357 57.1709 41.0954 56.9544 40.5986 56.5215C40.1019 56.084 39.8034 55.471 39.7031 54.6826ZM44.7412 50.2598C44.7412 49.5534 44.5521 48.9928 44.1738 48.5781C43.8001 48.1634 43.349 47.9561 42.8203 47.9561C42.2734 47.9561 41.7972 48.1794 41.3916 48.626C40.986 49.0726 40.7832 49.6514 40.7832 50.3623C40.7832 51.0003 40.9746 51.5199 41.3574 51.9209C41.7448 52.3174 42.221 52.5156 42.7861 52.5156C43.3558 52.5156 43.8229 52.3174 44.1875 51.9209C44.5566 51.5199 44.7412 50.9661 44.7412 50.2598ZM49.2051 51.5654C48.6947 51.3786 48.3164 51.112 48.0703 50.7656C47.8242 50.4193 47.7012 50.0046 47.7012 49.5215C47.7012 48.7923 47.9632 48.1794 48.4873 47.6826C49.0114 47.1859 49.7087 46.9375 50.5791 46.9375C51.4541 46.9375 52.1582 47.1927 52.6914 47.7031C53.2246 48.209 53.4912 48.8265 53.4912 49.5557C53.4912 50.0205 53.3682 50.4261 53.1221 50.7725C52.8805 51.1143 52.5114 51.3786 52.0146 51.5654C52.6299 51.766 53.097 52.0895 53.416 52.5361C53.7396 52.9827 53.9014 53.516 53.9014 54.1357C53.9014 54.9925 53.5983 55.7126 52.9922 56.2959C52.3861 56.8792 51.5885 57.1709 50.5996 57.1709C49.6107 57.1709 48.8132 56.8792 48.207 56.2959C47.6009 55.708 47.2979 54.9766 47.2979 54.1016C47.2979 53.4499 47.4619 52.9053 47.79 52.4678C48.1227 52.0257 48.5944 51.7249 49.2051 51.5654ZM48.959 49.4805C48.959 49.9544 49.1117 50.3418 49.417 50.6426C49.7223 50.9434 50.1188 51.0938 50.6064 51.0938C51.0804 51.0938 51.4678 50.9456 51.7686 50.6494C52.0739 50.3486 52.2266 49.9818 52.2266 49.5488C52.2266 49.0977 52.0693 48.7194 51.7549 48.4141C51.445 48.1042 51.0576 47.9492 50.5928 47.9492C50.1234 47.9492 49.7337 48.0996 49.4238 48.4004C49.1139 48.7012 48.959 49.0612 48.959 49.4805ZM48.5625 54.1084C48.5625 54.4593 48.6445 54.7988 48.8086 55.127C48.9772 55.4551 49.2256 55.7103 49.5537 55.8926C49.8818 56.0703 50.235 56.1592 50.6133 56.1592C51.2012 56.1592 51.6865 55.9701 52.0693 55.5918C52.4521 55.2135 52.6436 54.7327 52.6436 54.1494C52.6436 53.557 52.4453 53.0671 52.0488 52.6797C51.6569 52.2923 51.1647 52.0986 50.5723 52.0986C49.9935 52.0986 49.5127 52.29 49.1299 52.6729C48.7516 53.0557 48.5625 53.5342 48.5625 54.1084ZM54.9678 53.9922V52.7549H58.748V53.9922H54.9678ZM66.2334 55.8174V57H59.6094C59.6003 56.7038 59.6481 56.4189 59.7529 56.1455C59.9215 55.6943 60.1904 55.25 60.5596 54.8125C60.9333 54.375 61.471 53.8691 62.1729 53.2949C63.262 52.4017 63.998 51.6953 64.3809 51.1758C64.7637 50.6517 64.9551 50.1572 64.9551 49.6924C64.9551 49.2048 64.7796 48.7946 64.4287 48.4619C64.0824 48.1247 63.6289 47.9561 63.0684 47.9561C62.4759 47.9561 62.002 48.1338 61.6465 48.4893C61.291 48.8447 61.111 49.3369 61.1064 49.9658L59.8418 49.8359C59.9284 48.8926 60.2542 48.1748 60.8193 47.6826C61.3844 47.1859 62.1432 46.9375 63.0957 46.9375C64.0573 46.9375 64.8184 47.2041 65.3789 47.7373C65.9395 48.2705 66.2197 48.9313 66.2197 49.7197C66.2197 50.1208 66.1377 50.515 65.9736 50.9023C65.8096 51.2897 65.5361 51.6976 65.1533 52.126C64.7751 52.5544 64.1439 53.1423 63.2598 53.8896C62.5215 54.5094 62.0475 54.931 61.8379 55.1543C61.6283 55.373 61.4551 55.5941 61.3184 55.8174H66.2334ZM72.1943 57H70.9639V49.1592C70.6676 49.4417 70.278 49.7243 69.7949 50.0068C69.3164 50.2894 68.8857 50.5013 68.5029 50.6426V49.4531C69.1911 49.1296 69.7926 48.7376 70.3076 48.2773C70.8226 47.8171 71.1872 47.3704 71.4014 46.9375H72.1943V57ZM75.4346 48.291V47.1084H81.9219V48.0654C81.2839 48.7445 80.6504 49.6468 80.0215 50.7725C79.3971 51.8981 78.9141 53.0557 78.5723 54.2451C78.3262 55.0837 78.1689 56.002 78.1006 57H76.8359C76.8496 56.2116 77.0046 55.2591 77.3008 54.1426C77.597 53.026 78.0208 51.9505 78.5723 50.916C79.1283 49.877 79.7184 49.002 80.3428 48.291H75.4346ZM83.0088 53.9922V52.7549H86.7891V53.9922H83.0088ZM92.4424 57H91.2119V49.1592C90.9157 49.4417 90.526 49.7243 90.043 50.0068C89.5645 50.2894 89.1338 50.5013 88.751 50.6426V49.4531C89.4391 49.1296 90.0407 48.7376 90.5557 48.2773C91.0706 47.8171 91.4352 47.3704 91.6494 46.9375H92.4424V57ZM99.1963 57H97.9658V49.1592C97.6696 49.4417 97.2799 49.7243 96.7969 50.0068C96.3184 50.2894 95.8877 50.5013 95.5049 50.6426V49.4531C96.193 49.1296 96.7946 48.7376 97.3096 48.2773C97.8245 47.8171 98.1891 47.3704 98.4033 46.9375H99.1963V57ZM102.218 53.9922V52.7549H105.998V53.9922H102.218ZM107.201 54.6826L108.384 54.5732C108.484 55.1292 108.675 55.5326 108.958 55.7832C109.241 56.0339 109.603 56.1592 110.045 56.1592C110.423 56.1592 110.754 56.0726 111.036 55.8994C111.323 55.7262 111.558 55.4961 111.74 55.209C111.923 54.9173 112.075 54.5254 112.198 54.0332C112.321 53.541 112.383 53.0397 112.383 52.5293C112.383 52.4746 112.381 52.3926 112.376 52.2832C112.13 52.6751 111.793 52.9941 111.364 53.2402C110.94 53.4818 110.48 53.6025 109.983 53.6025C109.154 53.6025 108.452 53.3018 107.878 52.7002C107.304 52.0986 107.017 51.3057 107.017 50.3213C107.017 49.305 107.315 48.487 107.912 47.8672C108.514 47.2474 109.266 46.9375 110.168 46.9375C110.82 46.9375 111.414 47.113 111.952 47.4639C112.494 47.8148 112.905 48.3161 113.183 48.9678C113.465 49.6149 113.606 50.5537 113.606 51.7842C113.606 53.0648 113.467 54.0856 113.189 54.8467C112.911 55.6032 112.497 56.1797 111.945 56.5762C111.398 56.9727 110.756 57.1709 110.018 57.1709C109.234 57.1709 108.593 56.9544 108.097 56.5215C107.6 56.084 107.301 55.471 107.201 54.6826ZM112.239 50.2598C112.239 49.5534 112.05 48.9928 111.672 48.5781C111.298 48.1634 110.847 47.9561 110.318 47.9561C109.771 47.9561 109.295 48.1794 108.89 48.626C108.484 49.0726 108.281 49.6514 108.281 50.3623C108.281 51.0003 108.473 51.5199 108.855 51.9209C109.243 52.3174 109.719 52.5156 110.284 52.5156C110.854 52.5156 111.321 52.3174 111.686 51.9209C112.055 51.5199 112.239 50.9661 112.239 50.2598ZM114.81 54.375L116.102 54.2656C116.197 54.8945 116.418 55.3685 116.765 55.6875C117.116 56.002 117.537 56.1592 118.029 56.1592C118.622 56.1592 119.123 55.9359 119.533 55.4893C119.943 55.0426 120.148 54.4502 120.148 53.7119C120.148 53.0101 119.95 52.4564 119.554 52.0508C119.162 51.6452 118.647 51.4424 118.009 51.4424C117.612 51.4424 117.255 51.5335 116.936 51.7158C116.617 51.8936 116.366 52.126 116.184 52.4131L115.028 52.2627L115.999 47.1152H120.982V48.291H116.983L116.443 50.9844C117.045 50.5651 117.676 50.3555 118.337 50.3555C119.212 50.3555 119.95 50.6585 120.552 51.2646C121.153 51.8708 121.454 52.6501 121.454 53.6025C121.454 54.5094 121.19 55.2933 120.661 55.9541C120.019 56.7653 119.141 57.1709 118.029 57.1709C117.118 57.1709 116.373 56.9157 115.794 56.4053C115.22 55.8949 114.892 55.2181 114.81 54.375ZM1.10059 78V67.9785H5.54395C6.43717 67.9785 7.11621 68.0697 7.58105 68.252C8.0459 68.4297 8.41732 68.7464 8.69531 69.2021C8.97331 69.6579 9.1123 70.1615 9.1123 70.7129C9.1123 71.4238 8.88216 72.0231 8.42188 72.5107C7.96159 72.9984 7.25065 73.3083 6.28906 73.4404C6.63997 73.609 6.90658 73.7754 7.08887 73.9395C7.47624 74.2949 7.8431 74.7393 8.18945 75.2725L9.93262 78H8.26465L6.93848 75.915C6.55111 75.3135 6.2321 74.8532 5.98145 74.5342C5.73079 74.2152 5.50521 73.9919 5.30469 73.8643C5.10872 73.7367 4.9082 73.6478 4.70312 73.5977C4.55273 73.5658 4.30664 73.5498 3.96484 73.5498H2.42676V78H1.10059ZM2.42676 72.4014H5.27734C5.88346 72.4014 6.35742 72.3398 6.69922 72.2168C7.04102 72.0892 7.30078 71.8887 7.47852 71.6152C7.65625 71.3372 7.74512 71.0365 7.74512 70.7129C7.74512 70.2389 7.57194 69.8493 7.22559 69.5439C6.88379 69.2386 6.34147 69.0859 5.59863 69.0859H2.42676V72.4014ZM11.2246 78V67.9785H18.4707V69.1611H12.5508V72.2305H18.0947V73.4062H12.5508V76.8174H18.7031V78H11.2246ZM25.2246 74.0693V72.8936L29.4697 72.8867V76.6055C28.818 77.125 28.1458 77.5169 27.4531 77.7812C26.7604 78.041 26.0495 78.1709 25.3203 78.1709C24.3359 78.1709 23.4404 77.9613 22.6338 77.542C21.8317 77.1182 21.2256 76.5075 20.8154 75.71C20.4053 74.9124 20.2002 74.0215 20.2002 73.0371C20.2002 72.0618 20.403 71.1527 20.8086 70.3096C21.2188 69.4619 21.8066 68.833 22.5723 68.4229C23.3379 68.0127 24.2197 67.8076 25.2178 67.8076C25.9424 67.8076 26.5964 67.9261 27.1797 68.1631C27.7676 68.3955 28.2279 68.7214 28.5605 69.1406C28.8932 69.5599 29.1462 70.1068 29.3193 70.7812L28.123 71.1094C27.9727 70.599 27.7858 70.1979 27.5625 69.9062C27.3392 69.6146 27.0202 69.3822 26.6055 69.209C26.1908 69.0312 25.7305 68.9424 25.2246 68.9424C24.6185 68.9424 24.0944 69.0358 23.6523 69.2227C23.2103 69.4049 22.8525 69.6465 22.5791 69.9473C22.3102 70.248 22.1006 70.5785 21.9502 70.9385C21.695 71.5583 21.5674 72.2305 21.5674 72.9551C21.5674 73.8483 21.7201 74.5957 22.0254 75.1973C22.3353 75.7988 22.7842 76.2454 23.3721 76.5371C23.96 76.8288 24.5843 76.9746 25.2451 76.9746C25.8193 76.9746 26.3799 76.8652 26.9268 76.6465C27.4736 76.4232 27.8883 76.1862 28.1709 75.9355V74.0693H25.2246ZM31.0283 73.1191C31.0283 71.4557 31.4749 70.1546 32.3682 69.2158C33.2614 68.2725 34.4144 67.8008 35.8271 67.8008C36.7523 67.8008 37.5863 68.0218 38.3291 68.4639C39.0719 68.9059 39.637 69.5234 40.0244 70.3164C40.4163 71.1048 40.6123 72.0003 40.6123 73.0029C40.6123 74.0192 40.4072 74.9284 39.9971 75.7305C39.5869 76.5326 39.0059 77.141 38.2539 77.5557C37.502 77.9658 36.6908 78.1709 35.8203 78.1709C34.877 78.1709 34.0339 77.943 33.291 77.4873C32.5482 77.0316 31.9854 76.4095 31.6025 75.6211C31.2197 74.8327 31.0283 73.9987 31.0283 73.1191ZM32.3955 73.1396C32.3955 74.3473 32.7191 75.2998 33.3662 75.9971C34.0179 76.6898 34.8337 77.0361 35.8135 77.0361C36.8115 77.0361 37.6318 76.6852 38.2744 75.9834C38.9215 75.2816 39.2451 74.2858 39.2451 72.9961C39.2451 72.1803 39.1061 71.4694 38.8281 70.8633C38.5547 70.2526 38.1514 69.7809 37.6182 69.4482C37.0895 69.111 36.4948 68.9424 35.834 68.9424C34.8952 68.9424 34.0863 69.266 33.4072 69.9131C32.7327 70.5557 32.3955 71.6312 32.3955 73.1396ZM42.3145 78V67.9785H43.6748L48.9385 75.8467V67.9785H50.21V78H48.8496L43.5859 70.125V78H42.3145ZM52.6299 72.1416V70.7402H54.0312V72.1416H52.6299ZM52.6299 78V76.5986H54.0312V78H52.6299ZM59.7393 73.0576C59.7393 71.8727 59.86 70.9202 60.1016 70.2002C60.3477 69.4756 60.71 68.9173 61.1885 68.5254C61.6715 68.1335 62.2777 67.9375 63.0068 67.9375C63.5446 67.9375 64.0163 68.0469 64.4219 68.2656C64.8275 68.4798 65.1624 68.792 65.4268 69.2021C65.6911 69.6077 65.8984 70.1045 66.0488 70.6924C66.1992 71.2757 66.2744 72.0641 66.2744 73.0576C66.2744 74.2334 66.1536 75.1836 65.9121 75.9082C65.6706 76.6283 65.3083 77.1865 64.8252 77.583C64.3467 77.9749 63.7406 78.1709 63.0068 78.1709C62.0407 78.1709 61.2819 77.8245 60.7305 77.1318C60.0697 76.2979 59.7393 74.9398 59.7393 73.0576ZM61.0039 73.0576C61.0039 74.7028 61.1953 75.7988 61.5781 76.3457C61.9655 76.888 62.4417 77.1592 63.0068 77.1592C63.5719 77.1592 64.0459 76.8857 64.4287 76.3389C64.8161 75.792 65.0098 74.6982 65.0098 73.0576C65.0098 71.4079 64.8161 70.3118 64.4287 69.7695C64.0459 69.2272 63.5674 68.9561 62.9932 68.9561C62.4281 68.9561 61.9769 69.1953 61.6396 69.6738C61.2158 70.2845 61.0039 71.4124 61.0039 73.0576ZM73.999 76.8174V78H67.375C67.3659 77.7038 67.4137 77.4189 67.5186 77.1455C67.6872 76.6943 67.9561 76.25 68.3252 75.8125C68.6989 75.375 69.2367 74.8691 69.9385 74.2949C71.0277 73.4017 71.7637 72.6953 72.1465 72.1758C72.5293 71.6517 72.7207 71.1572 72.7207 70.6924C72.7207 70.2048 72.5452 69.7946 72.1943 69.4619C71.848 69.1247 71.3945 68.9561 70.834 68.9561C70.2415 68.9561 69.7676 69.1338 69.4121 69.4893C69.0566 69.8447 68.8766 70.3369 68.8721 70.9658L67.6074 70.8359C67.694 69.8926 68.0199 69.1748 68.585 68.6826C69.1501 68.1859 69.9089 67.9375 70.8613 67.9375C71.8229 67.9375 72.584 68.2041 73.1445 68.7373C73.7051 69.2705 73.9854 69.9313 73.9854 70.7197C73.9854 71.1208 73.9033 71.515 73.7393 71.9023C73.5752 72.2897 73.3018 72.6976 72.9189 73.126C72.5407 73.5544 71.9095 74.1423 71.0254 74.8896C70.2871 75.5094 69.8132 75.931 69.6035 76.1543C69.3939 76.373 69.2207 76.5941 69.084 76.8174H73.999ZM79.96 78H78.7295V70.1592C78.4333 70.4417 78.0436 70.7243 77.5605 71.0068C77.082 71.2894 76.6514 71.5013 76.2686 71.6426V70.4531C76.9567 70.1296 77.5583 69.7376 78.0732 69.2773C78.5882 68.8171 78.9528 68.3704 79.167 67.9375H79.96V78ZM89.585 76.8174V78H82.9609C82.9518 77.7038 82.9997 77.4189 83.1045 77.1455C83.2731 76.6943 83.542 76.25 83.9111 75.8125C84.2848 75.375 84.8226 74.8691 85.5244 74.2949C86.6136 73.4017 87.3496 72.6953 87.7324 72.1758C88.1152 71.6517 88.3066 71.1572 88.3066 70.6924C88.3066 70.2048 88.1312 69.7946 87.7803 69.4619C87.4339 69.1247 86.9805 68.9561 86.4199 68.9561C85.8275 68.9561 85.3535 69.1338 84.998 69.4893C84.6426 69.8447 84.4626 70.3369 84.458 70.9658L83.1934 70.8359C83.2799 69.8926 83.6058 69.1748 84.1709 68.6826C84.736 68.1859 85.4948 67.9375 86.4473 67.9375C87.4089 67.9375 88.1699 68.2041 88.7305 68.7373C89.291 69.2705 89.5713 69.9313 89.5713 70.7197C89.5713 71.1208 89.4893 71.515 89.3252 71.9023C89.1611 72.2897 88.8877 72.6976 88.5049 73.126C88.1266 73.5544 87.4954 74.1423 86.6113 74.8896C85.873 75.5094 85.3991 75.931 85.1895 76.1543C84.9798 76.373 84.8066 76.5941 84.6699 76.8174H89.585ZM90.9111 73.0576C90.9111 71.8727 91.0319 70.9202 91.2734 70.2002C91.5195 69.4756 91.8818 68.9173 92.3604 68.5254C92.8434 68.1335 93.4495 67.9375 94.1787 67.9375C94.7165 67.9375 95.1882 68.0469 95.5938 68.2656C95.9993 68.4798 96.3343 68.792 96.5986 69.2021C96.863 69.6077 97.0703 70.1045 97.2207 70.6924C97.3711 71.2757 97.4463 72.0641 97.4463 73.0576C97.4463 74.2334 97.3255 75.1836 97.084 75.9082C96.8424 76.6283 96.4801 77.1865 95.9971 77.583C95.5186 77.9749 94.9124 78.1709 94.1787 78.1709C93.2126 78.1709 92.4538 77.8245 91.9023 77.1318C91.2415 76.2979 90.9111 74.9398 90.9111 73.0576ZM92.1758 73.0576C92.1758 74.7028 92.3672 75.7988 92.75 76.3457C93.1374 76.888 93.6136 77.1592 94.1787 77.1592C94.7438 77.1592 95.2178 76.8857 95.6006 76.3389C95.988 75.792 96.1816 74.6982 96.1816 73.0576C96.1816 71.4079 95.988 70.3118 95.6006 69.7695C95.2178 69.2272 94.7393 68.9561 94.165 68.9561C93.5999 68.9561 93.1488 69.1953 92.8115 69.6738C92.3877 70.2845 92.1758 71.4124 92.1758 73.0576ZM105.089 70.4326L103.865 70.5283C103.756 70.0452 103.601 69.6943 103.4 69.4756C103.068 69.1247 102.658 68.9492 102.17 68.9492C101.778 68.9492 101.434 69.0586 101.138 69.2773C100.75 69.5599 100.445 69.9723 100.222 70.5146C99.9984 71.057 99.8822 71.8294 99.873 72.832C100.169 72.3809 100.532 72.0459 100.96 71.8271C101.388 71.6084 101.837 71.499 102.307 71.499C103.127 71.499 103.824 71.8021 104.398 72.4082C104.977 73.0098 105.267 73.7891 105.267 74.7461C105.267 75.375 105.13 75.9606 104.856 76.5029C104.588 77.0407 104.216 77.4531 103.742 77.7402C103.268 78.0273 102.73 78.1709 102.129 78.1709C101.104 78.1709 100.267 77.7949 99.6201 77.043C98.973 76.2865 98.6494 75.0423 98.6494 73.3105C98.6494 71.3737 99.0072 69.9655 99.7227 69.0859C100.347 68.3203 101.188 67.9375 102.245 67.9375C103.034 67.9375 103.678 68.1585 104.18 68.6006C104.686 69.0426 104.989 69.6533 105.089 70.4326ZM100.064 74.7529C100.064 75.1768 100.153 75.5824 100.331 75.9697C100.513 76.3571 100.766 76.6533 101.09 76.8584C101.413 77.0589 101.753 77.1592 102.108 77.1592C102.628 77.1592 103.075 76.9495 103.448 76.5303C103.822 76.111 104.009 75.5413 104.009 74.8213C104.009 74.1286 103.824 73.584 103.455 73.1875C103.086 72.7865 102.621 72.5859 102.061 72.5859C101.505 72.5859 101.033 72.7865 100.646 73.1875C100.258 73.584 100.064 74.1058 100.064 74.7529ZM106.682 75.6826L107.864 75.5732C107.965 76.1292 108.156 76.5326 108.438 76.7832C108.721 77.0339 109.083 77.1592 109.525 77.1592C109.904 77.1592 110.234 77.0726 110.517 76.8994C110.804 76.7262 111.038 76.4961 111.221 76.209C111.403 75.9173 111.556 75.5254 111.679 75.0332C111.802 74.541 111.863 74.0397 111.863 73.5293C111.863 73.4746 111.861 73.3926 111.856 73.2832C111.61 73.6751 111.273 73.9941 110.845 74.2402C110.421 74.4818 109.961 74.6025 109.464 74.6025C108.634 74.6025 107.933 74.3018 107.358 73.7002C106.784 73.0986 106.497 72.3057 106.497 71.3213C106.497 70.305 106.796 69.487 107.393 68.8672C107.994 68.2474 108.746 67.9375 109.648 67.9375C110.3 67.9375 110.895 68.113 111.433 68.4639C111.975 68.8148 112.385 69.3161 112.663 69.9678C112.946 70.6149 113.087 71.5537 113.087 72.7842C113.087 74.0648 112.948 75.0856 112.67 75.8467C112.392 76.6032 111.977 77.1797 111.426 77.5762C110.879 77.9727 110.236 78.1709 109.498 78.1709C108.714 78.1709 108.074 77.9544 107.577 77.5215C107.08 77.084 106.782 76.471 106.682 75.6826ZM111.72 71.2598C111.72 70.5534 111.531 69.9928 111.152 69.5781C110.779 69.1634 110.327 68.9561 109.799 68.9561C109.252 68.9561 108.776 69.1794 108.37 69.626C107.965 70.0726 107.762 70.6514 107.762 71.3623C107.762 72.0003 107.953 72.5199 108.336 72.9209C108.723 73.3174 109.2 73.5156 109.765 73.5156C110.334 73.5156 110.801 73.3174 111.166 72.9209C111.535 72.5199 111.72 71.9661 111.72 71.2598ZM118.234 78V75.6006H113.887V74.4727L118.46 67.9785H119.465V74.4727H120.818V75.6006H119.465V78H118.234ZM118.234 74.4727V69.9541L115.097 74.4727H118.234ZM128.468 70.4326L127.244 70.5283C127.135 70.0452 126.98 69.6943 126.779 69.4756C126.447 69.1247 126.036 68.9492 125.549 68.9492C125.157 68.9492 124.813 69.0586 124.517 69.2773C124.129 69.5599 123.824 69.9723 123.601 70.5146C123.377 71.057 123.261 71.8294 123.252 72.832C123.548 72.3809 123.91 72.0459 124.339 71.8271C124.767 71.6084 125.216 71.499 125.686 71.499C126.506 71.499 127.203 71.8021 127.777 72.4082C128.356 73.0098 128.646 73.7891 128.646 74.7461C128.646 75.375 128.509 75.9606 128.235 76.5029C127.966 77.0407 127.595 77.4531 127.121 77.7402C126.647 78.0273 126.109 78.1709 125.508 78.1709C124.482 78.1709 123.646 77.7949 122.999 77.043C122.352 76.2865 122.028 75.0423 122.028 73.3105C122.028 71.3737 122.386 69.9655 123.102 69.0859C123.726 68.3203 124.567 67.9375 125.624 67.9375C126.412 67.9375 127.057 68.1585 127.559 68.6006C128.064 69.0426 128.368 69.6533 128.468 70.4326ZM123.443 74.7529C123.443 75.1768 123.532 75.5824 123.71 75.9697C123.892 76.3571 124.145 76.6533 124.469 76.8584C124.792 77.0589 125.132 77.1592 125.487 77.1592C126.007 77.1592 126.453 76.9495 126.827 76.5303C127.201 76.111 127.388 75.5413 127.388 74.8213C127.388 74.1286 127.203 73.584 126.834 73.1875C126.465 72.7865 126 72.5859 125.439 72.5859C124.883 72.5859 124.412 72.7865 124.024 73.1875C123.637 73.584 123.443 74.1058 123.443 74.7529Z" fill="#828282"/>
</svg>
